<?xml version="1.0" standalone="no"?><!DOCTYPE svg PUBLIC "-//W3C//DTD SVG 1.1//EN"
        "http://www.w3.org/Graphics/SVG/1.1/DTD/svg11.dtd">
<svg class="icon" viewBox="0 0 1025 1024" version="1.1" xmlns="http://www.w3.org/2000/svg"
     xmlns:xlink="http://www.w3.org/1999/xlink" width="3002.9296875" height="3000">
    <defs>
        <style type="text/css"></style>
    </defs>
    <path d="M993.407379 698.432203c-110.655931-240.51185-297.087814-423.487735-330.943793-455.551715 21.183987-37.311977 93.503942-165.055897 99.071938-176.959889 6.527996-14.143991 17.023989-46.207971-21.119987-53.311967-38.207976-6.975996-63.42396-15.48799-84.543947-11.647993C634.623603 4.800637 602.943623 28.736622 521.599674 32.06462c-79.74395 3.199998-92.351942-30.911981-134.719916-29.951981C359.359775 2.752638 303.48781 6.400636 288.06382 11.776633 272.51183 17.344629 246.591846 35.264618 270.911831 72.128595 290.623818 101.760576 344.127785 200.512515 364.287772 237.888491 357.631776 243.776488 134.911916 443.520363 13.567992 737.280179c-28.735982 69.503957-8.639995 161.983899 31.67998 210.047869 71.999955 85.695946 164.031897 76.351952 173.311892 76.351952l602.815623 0c20.159987 0 128.12792-11.391993 176.12789-96.06394C1025.023359 879.104091 1041.535349 803.264138 993.407379 698.432203zM703.99956 576.00028l0 63.99996L575.99964 640.00024l0 63.99996 127.99992 0 0 63.99996L575.99964 768.00016l0 63.99996L447.99972 832.00012l0-63.99996L319.9998 768.00016l0-63.99996 127.99992 0 0-63.99996L319.9998 640.00024 319.9998 576.00028l127.99992 0L319.9998 448.00036l63.99996-63.99996 127.99992 127.99992 127.99992-127.99992 63.99996 63.99996L575.99964 576.00028 703.99956 576.00028z"
          ></path>
</svg>